<svg width="30" height="30" viewBox="0 0 30 30" fill="none"
    xmlns="http://www.w3.org/2000/svg">
    <path
        d="M26.7857 13.8462H24.6429V16.1538H26.7857C27.0699 16.1538 27.3424 16.2754 27.5433 16.4918C27.7443 16.7082 27.8571 17.0017 27.8571 17.3077V25.3846C27.8571 25.9967 27.6314 26.5836 27.2295 27.0164C26.8277 27.4492 26.2826 27.6923 25.7143 27.6923C25.146 27.6923 24.6009 27.4492 24.1991 27.0164C23.7972 26.5836 23.5714 25.9967 23.5714 25.3846V3.46154C23.5714 2.54348 23.2328 1.66303 22.63 1.01386C22.0272 0.364697 21.2096 0 20.3571 0H3.21429C2.3618 0 1.54424 0.364697 0.941443 1.01386C0.338647 1.66303 0 2.54348 0 3.46154V25.3846C0 26.6087 0.451529 27.7826 1.25526 28.6482C2.05898 29.5137 3.14907 30 4.28571 30H25.7143C26.8509 30 27.941 29.5137 28.7447 28.6482C29.5485 27.7826 30 26.6087 30 25.3846V17.3077C30 16.3896 29.6614 15.5092 29.0586 14.86C28.4558 14.2108 27.6382 13.8462 26.7857 13.8462ZM4.28571 27.6923C3.71739 27.6923 3.17235 27.4492 2.77049 27.0164C2.36862 26.5836 2.14286 25.9967 2.14286 25.3846V3.46154C2.14286 3.15552 2.25574 2.86203 2.45667 2.64565C2.6576 2.42926 2.93012 2.30769 3.21429 2.30769H20.3571C20.6413 2.30769 20.9138 2.42926 21.1148 2.64565C21.3157 2.86203 21.4286 3.15552 21.4286 3.46154V25.3846C21.4299 26.1952 21.6295 26.9911 22.0071 27.6923H4.28571Z"
        fill="white" />
    <path d="M19.2859 4.61523H6.42871V6.92293H19.2859V4.61523Z" fill="white" />
    <path d="M19.2861 9.23047H4.28613V11.5382H19.2861V9.23047Z" fill="white" />
    <path d="M19.2861 13.8457H4.28613V16.1534H19.2861V13.8457Z" fill="white" />
    <path d="M19.2861 18.4619H4.28613V20.7696H19.2861V18.4619Z" fill="white" />
    <path d="M19.2861 23.0771H4.28613V25.3848H19.2861V23.0771Z" fill="white" />
</svg>
