<svg width="28" height="28" viewBox="0 0 28 28" fill="none" xmlns="http://www.w3.org/2000/svg">
<path d="M19.7662 24.0776L18.9841 17.4164C18.8733 16.4729 18.4423 15.605 17.7722 14.9758C17.1021 14.3467 16.2391 13.9996 15.3454 14H12.6523C11.759 14.0003 10.8965 14.3476 10.227 14.9767C9.55736 15.6058 9.12673 16.4733 9.01596 17.4164L8.23273 24.0776C8.18974 24.4436 8.22043 24.8151 8.32275 25.1675C8.42508 25.5198 8.59669 25.845 8.82621 26.1214C9.05572 26.3978 9.33788 26.6191 9.65395 26.7706C9.97001 26.9221 10.3128 27.0003 10.6594 27H17.3407C17.6873 27.0001 18.0299 26.9217 18.3458 26.7702C18.6617 26.6186 18.9437 26.3973 19.1731 26.1209C19.4025 25.8446 19.574 25.5194 19.6762 25.1671C19.7785 24.8149 19.8091 24.4435 19.7662 24.0776V24.0776Z" stroke="#4081EC" stroke-opacity="0.3" stroke-width="2" stroke-linecap="round" stroke-linejoin="round"/>
<path d="M13.9999 8.8C16.0244 8.8 17.6656 7.05391 17.6656 4.9C17.6656 2.74609 16.0244 1 13.9999 1C11.9754 1 10.3342 2.74609 10.3342 4.9C10.3342 7.05391 11.9754 8.8 13.9999 8.8Z" stroke="#4081EC" stroke-opacity="0.3" stroke-width="2"/>
<path d="M4.22479 12.7C5.57445 12.7 6.66857 11.5359 6.66857 10.1C6.66857 8.66406 5.57445 7.5 4.22479 7.5C2.87512 7.5 1.78101 8.66406 1.78101 10.1C1.78101 11.5359 2.87512 12.7 4.22479 12.7Z" stroke="#4081EC" stroke-opacity="0.3" stroke-width="2"/>
<path d="M23.7751 12.7C25.1247 12.7 26.2189 11.5359 26.2189 10.1C26.2189 8.66406 25.1247 7.5 23.7751 7.5C22.4254 7.5 21.3313 8.66406 21.3313 10.1C21.3313 11.5359 22.4254 12.7 23.7751 12.7Z" stroke="#4081EC" stroke-opacity="0.3" stroke-width="2"/>
<path d="M4.22487 16.5996H3.85097C3.27248 16.5995 2.71272 16.8178 2.27128 17.2156C1.82984 17.6133 1.53534 18.1648 1.44018 18.7719L1.03329 21.3719C0.9749 21.7444 0.993484 22.126 1.08775 22.4901C1.18202 22.8542 1.3497 23.192 1.57914 23.4802C1.80859 23.7684 2.09428 23.9999 2.41634 24.1587C2.73841 24.3174 3.08912 24.3997 3.44408 24.3996H7.89054M23.7751 16.5996H24.149C24.7275 16.5995 25.2873 16.8178 25.7287 17.2156C26.1702 17.6133 26.4647 18.1648 26.5598 18.7719L26.9667 21.3719C27.0251 21.7444 27.0065 22.126 26.9122 22.4901C26.818 22.8542 26.6503 23.192 26.4209 23.4802C26.1914 23.7684 25.9057 23.9999 25.5837 24.1587C25.2616 24.3174 24.9109 24.3997 24.5559 24.3996H20.1095" stroke="#4081EC" stroke-opacity="0.3" stroke-width="2" stroke-linecap="round" stroke-linejoin="round"/>
</svg>
