<svg width="19" height="28" viewBox="0 0 19 28" fill="none" xmlns="http://www.w3.org/2000/svg">
<path d="M17.9731 24.0776L16.855 17.4164C16.6965 16.4729 16.0803 15.605 15.1222 14.9758C14.164 14.3467 12.93 13.9996 11.6522 14H7.80167C6.52443 14.0003 5.29127 14.3476 4.33389 14.9767C3.3765 15.6058 2.76078 16.4733 2.6024 17.4164L1.48253 24.0776C1.42107 24.4436 1.46495 24.8151 1.61125 25.1675C1.75756 25.5198 2.00293 25.845 2.33109 26.1214C2.65925 26.3978 3.06268 26.6191 3.5146 26.7706C3.96651 26.9221 4.45656 27.0003 4.9522 27H14.5052C15.0006 27.0001 15.4905 26.9217 15.9422 26.7702C16.3939 26.6186 16.7971 26.3973 17.1251 26.1209C17.4531 25.8446 17.6983 25.5194 17.8445 25.1671C17.9907 24.8149 18.0345 24.4435 17.9731 24.0776V24.0776Z" stroke="#4081EC" stroke-opacity="0.3" stroke-width="2" stroke-linecap="round" stroke-linejoin="round"/>
<path d="M9.66567 8.8C11.6902 8.8 13.3313 7.05391 13.3313 4.9C13.3313 2.74609 11.6902 1 9.66567 1C7.64118 1 6 2.74609 6 4.9C6 7.05391 7.64118 8.8 9.66567 8.8Z" stroke="#4081EC" stroke-opacity="0.3" stroke-width="2"/>
</svg>
