<svg width="26" height="26" viewBox="0 0 26 26" fill="none" xmlns="http://www.w3.org/2000/svg">
<path d="M23.2143 12H21.3571V14H23.2143C23.4606 14 23.6967 14.1054 23.8709 14.2929C24.045 14.4804 24.1429 14.7348 24.1429 15V22C24.1429 22.5304 23.9472 23.0391 23.5989 23.4142C23.2506 23.7893 22.7783 24 22.2857 24C21.7932 24 21.3208 23.7893 20.9725 23.4142C20.6242 23.0391 20.4286 22.5304 20.4286 22V3C20.4286 2.20435 20.1351 1.44129 19.6127 0.87868C19.0902 0.316071 18.3817 0 17.6429 0H2.78571C2.0469 0 1.33834 0.316071 0.815917 0.87868C0.293494 1.44129 0 2.20435 0 3V22C0 23.0609 0.391325 24.0783 1.08789 24.8284C1.78445 25.5786 2.7292 26 3.71429 26H22.2857C23.2708 26 24.2155 25.5786 24.9121 24.8284C25.6087 24.0783 26 23.0609 26 22V15C26 14.2044 25.7065 13.4413 25.1841 12.8787C24.6617 12.3161 23.9531 12 23.2143 12ZM3.71429 24C3.22174 24 2.74937 23.7893 2.40109 23.4142C2.05281 23.0391 1.85714 22.5304 1.85714 22V3C1.85714 2.73478 1.95497 2.48043 2.12912 2.29289C2.30326 2.10536 2.53944 2 2.78571 2H17.6429C17.8891 2 18.1253 2.10536 18.2995 2.29289C18.4736 2.48043 18.5714 2.73478 18.5714 3V22C18.5726 22.7025 18.7455 23.3923 19.0729 24H3.71429Z" fill="#4081EC"/>
<path d="M16.7144 4H5.57153V6H16.7144V4Z" fill="#4081EC"/>
<path d="M16.7144 8H3.71436V10H16.7144V8Z" fill="#4081EC"/>
<path d="M16.7144 12H3.71436V14H16.7144V12Z" fill="#4081EC"/>
<path d="M16.7144 16H3.71436V18H16.7144V16Z" fill="#4081EC"/>
<path d="M16.7144 20H3.71436V22H16.7144V20Z" fill="#4081EC"/>
</svg>
