<svg width="18" height="18" viewBox="0 0 18 18" fill="none" xmlns="http://www.w3.org/2000/svg">
<path d="M11.4786 6.63158C12.348 6.63158 13.0536 7.37432 13.0536 8.28947V11.3684H13.05V11.6053C13.05 11.7937 12.9789 11.9744 12.8523 12.1077C12.7257 12.2409 12.554 12.3158 12.375 12.3158C12.196 12.3158 12.0243 12.2409 11.8977 12.1077C11.7711 11.9744 11.7 11.7937 11.7 11.6053V9.47368H11.7036V8.28947C11.7036 8.22666 11.6799 8.16642 11.6377 8.122C11.5955 8.07758 11.5383 8.05263 11.4786 8.05263H6.5268C6.46713 8.05263 6.4099 8.07758 6.3677 8.122C6.3255 8.16642 6.3018 8.22666 6.3018 8.28947V11.3684H6.3V11.6053C6.3 11.7937 6.22888 11.9744 6.1023 12.1077C5.97571 12.2409 5.80402 12.3158 5.625 12.3158C5.44598 12.3158 5.27429 12.2409 5.1477 12.1077C5.02112 11.9744 4.95 11.7937 4.95 11.6053V9.47368H4.9518V8.28947C4.9518 7.37432 5.6565 6.63158 6.5268 6.63158H11.4786ZM16.65 8.28947V11.6053C16.65 11.7937 16.7211 11.9744 16.8477 12.1077C16.9743 12.2409 17.146 12.3158 17.325 12.3158C17.504 12.3158 17.6757 12.2409 17.8023 12.1077C17.9289 11.9744 18 11.7937 18 11.6053V8.28947C18 7.84977 17.8341 7.42808 17.5387 7.11717C17.2433 6.80625 16.8427 6.63158 16.425 6.63158H13.3875C13.6962 7.02474 13.8978 7.51453 13.9437 8.05263H16.425C16.4847 8.05263 16.5419 8.07758 16.5841 8.122C16.6263 8.16642 16.65 8.22666 16.65 8.28947ZM0 11.6053C3.77259e-09 11.7937 0.0711158 11.9744 0.197703 12.1077C0.32429 12.2409 0.495979 12.3158 0.675 12.3158C0.854021 12.3158 1.02571 12.2409 1.1523 12.1077C1.27888 11.9744 1.35 11.7937 1.35 11.6053V8.28947C1.35 8.22666 1.37371 8.16642 1.4159 8.122C1.4581 8.07758 1.51533 8.05263 1.575 8.05263H4.0617C4.10646 7.53068 4.30038 7.03524 4.6179 6.63158H1.575C1.15728 6.63158 0.756677 6.80625 0.461307 7.11717C0.165937 7.42808 0 7.84977 0 8.28947V11.6053ZM9 0C9.71608 0 10.4028 0.299435 10.9092 0.832433C11.4155 1.36543 11.7 2.08833 11.7 2.84211C11.7 3.59588 11.4155 4.31878 10.9092 4.85178C10.4028 5.38478 9.71608 5.68421 9 5.68421C8.28392 5.68421 7.59716 5.38478 7.09081 4.85178C6.58446 4.31878 6.3 3.59588 6.3 2.84211C6.3 2.08833 6.58446 1.36543 7.09081 0.832433C7.59716 0.299435 8.28392 0 9 0ZM9 1.42105C8.64196 1.42105 8.29858 1.57077 8.04541 1.83727C7.79223 2.10377 7.65 2.46522 7.65 2.84211C7.65 3.21899 7.79223 3.58044 8.04541 3.84694C8.29858 4.11344 8.64196 4.26316 9 4.26316C9.35804 4.26316 9.70142 4.11344 9.95459 3.84694C10.2078 3.58044 10.35 3.21899 10.35 2.84211C10.35 2.46522 10.2078 2.10377 9.95459 1.83727C9.70142 1.57077 9.35804 1.42105 9 1.42105ZM14.85 0.947368C15.4467 0.947368 16.019 1.1969 16.441 1.64106C16.8629 2.08523 17.1 2.68765 17.1 3.31579C17.1 3.94393 16.8629 4.54635 16.441 4.99052C16.019 5.43468 15.4467 5.68421 14.85 5.68421C14.2533 5.68421 13.681 5.43468 13.259 4.99052C12.8371 4.54635 12.6 3.94393 12.6 3.31579C12.6 2.68765 12.8371 2.08523 13.259 1.64106C13.681 1.1969 14.2533 0.947368 14.85 0.947368ZM14.85 2.36842C14.6113 2.36842 14.3824 2.46823 14.2136 2.6459C14.0448 2.82357 13.95 3.06453 13.95 3.31579C13.95 3.56705 14.0448 3.80801 14.2136 3.98568C14.3824 4.16335 14.6113 4.26316 14.85 4.26316C15.0887 4.26316 15.3176 4.16335 15.4864 3.98568C15.6552 3.80801 15.75 3.56705 15.75 3.31579C15.75 3.06453 15.6552 2.82357 15.4864 2.6459C15.3176 2.46823 15.0887 2.36842 14.85 2.36842ZM3.15 0.947368C3.74674 0.947368 4.31903 1.1969 4.74099 1.64106C5.16295 2.08523 5.4 2.68765 5.4 3.31579C5.4 3.94393 5.16295 4.54635 4.74099 4.99052C4.31903 5.43468 3.74674 5.68421 3.15 5.68421C2.55326 5.68421 1.98097 5.43468 1.55901 4.99052C1.13705 4.54635 0.9 3.94393 0.9 3.31579C0.9 2.68765 1.13705 2.08523 1.55901 1.64106C1.98097 1.1969 2.55326 0.947368 3.15 0.947368ZM3.15 2.36842C2.9113 2.36842 2.68239 2.46823 2.5136 2.6459C2.34482 2.82357 2.25 3.06453 2.25 3.31579C2.25 3.56705 2.34482 3.80801 2.5136 3.98568C2.68239 4.16335 2.9113 4.26316 3.15 4.26316C3.38869 4.26316 3.61761 4.16335 3.7864 3.98568C3.95518 3.80801 4.05 3.56705 4.05 3.31579C4.05 3.06453 3.95518 2.82357 3.7864 2.6459C3.61761 2.46823 3.38869 2.36842 3.15 2.36842ZM0.675 13.2632C0.495979 13.2632 0.32429 13.338 0.197703 13.4713C0.0711158 13.6045 0 13.7852 0 13.9737V14.4474C0 15.3896 0.355579 16.2932 0.988515 16.9595C1.62145 17.6257 2.47989 18 3.375 18H14.625C15.5201 18 16.3786 17.6257 17.0115 16.9595C17.6444 16.2932 18 15.3896 18 14.4474V13.9737C18 13.7852 17.9289 13.6045 17.8023 13.4713C17.6757 13.338 17.504 13.2632 17.325 13.2632H0.675ZM3.375 16.5789C2.87691 16.5789 2.39629 16.3857 2.02504 16.0361C1.65379 15.6866 1.41794 15.2053 1.3626 14.6842H16.6374C16.5821 15.2053 16.3462 15.6866 15.975 16.0361C15.6037 16.3857 15.1231 16.5789 14.625 16.5789H3.375Z" fill="#4385F3"/>
</svg>
