<svg width="19" height="18" viewBox="0 0 19 18" fill="none" xmlns="http://www.w3.org/2000/svg">
<path d="M6.96699 0V1.8H12.367V0H14.167V1.8H17.767C18.0057 1.8 18.2346 1.89482 18.4034 2.0636C18.5722 2.23239 18.667 2.4613 18.667 2.7V17.1C18.667 17.3387 18.5722 17.5676 18.4034 17.7364C18.2346 17.9052 18.0057 18 17.767 18H1.56699C1.3283 18 1.09938 17.9052 0.930596 17.7364C0.761813 17.5676 0.666992 17.3387 0.666992 17.1V2.7C0.666992 2.4613 0.761813 2.23239 0.930596 2.0636C1.09938 1.89482 1.3283 1.8 1.56699 1.8H5.16699V0H6.96699ZM16.867 9H2.46699V16.2H16.867V9ZM6.06699 10.8V12.6H4.26699V10.8H6.06699ZM10.567 10.8V12.6H8.76699V10.8H10.567ZM15.067 10.8V12.6H13.267V10.8H15.067ZM5.16699 3.6H2.46699V7.2H16.867V3.6H14.167V5.4H12.367V3.6H6.96699V5.4H5.16699V3.6Z" fill="#4385F3"/>
</svg>
