<svg width="19" height="18" viewBox="0 0 19 18" fill="none" xmlns="http://www.w3.org/2000/svg">
<path d="M9.2666 18C4.2959 18 0.266602 13.9707 0.266602 9C0.266602 4.0293 4.2959 0 9.2666 0C14.2373 0 18.2666 4.0293 18.2666 9C18.2666 13.9707 14.2373 18 9.2666 18ZM9.2666 16.2C11.1762 16.2 13.0075 15.4414 14.3578 14.0912C15.708 12.7409 16.4666 10.9096 16.4666 9C16.4666 7.09044 15.708 5.25909 14.3578 3.90883C13.0075 2.55857 11.1762 1.8 9.2666 1.8C7.35704 1.8 5.52569 2.55857 4.17543 3.90883C2.82517 5.25909 2.0666 7.09044 2.0666 9C2.0666 10.9096 2.82517 12.7409 4.17543 14.0912C5.52569 15.4414 7.35704 16.2 9.2666 16.2ZM10.1666 9H13.7666V10.8H8.3666V4.5H10.1666V9Z" fill="#4385F3"/>
</svg>
