<svg width="25" height="24" viewBox="0 0 25 24" fill="none" xmlns="http://www.w3.org/2000/svg">
<path d="M15.4331 22H8.7664M15.4331 22V12.6662C15.4331 12.4893 15.3628 12.3198 15.2378 12.1947C15.1128 12.0697 14.9432 11.9995 14.7664 11.9995H9.43307C9.25625 11.9995 9.08668 12.0697 8.96166 12.1947C8.83664 12.3198 8.7664 12.4893 8.7664 12.6662V22M15.4331 22H21.4331C21.6099 22 21.7794 21.9298 21.9045 21.8047C22.0295 21.6797 22.0997 21.5101 22.0997 21.3333V18.7776C22.0997 18.6008 22.0295 18.4312 21.9045 18.3062C21.7794 18.1811 21.6099 18.1109 21.4331 18.1109H16.0997C15.9229 18.1109 15.7534 18.1811 15.6283 18.3062C15.5033 18.4312 15.4331 18.6008 15.4331 18.7776V22ZM8.7664 22V16.5553C8.7664 16.3784 8.69616 16.2089 8.57114 16.0838C8.44611 15.9588 8.27654 15.8886 8.09973 15.8886H2.7664C2.58959 15.8886 2.42002 15.9588 2.29499 16.0838C2.16997 16.2089 2.09973 16.3784 2.09973 16.5553V21.3333C2.09973 21.5101 2.16997 21.6797 2.29499 21.8047C2.42002 21.9298 2.58959 22 2.7664 22H8.7664ZM10.7731 4.34684L11.7831 2.20561C11.8103 2.1444 11.8548 2.0924 11.911 2.05591C11.9672 2.01942 12.0327 2 12.0997 2C12.1667 2 12.2323 2.01942 12.2885 2.05591C12.3447 2.0924 12.3891 2.1444 12.4164 2.20561L13.4275 4.34684L15.6853 4.69241C15.9753 4.73686 16.0908 5.11021 15.8808 5.32355L14.2475 6.99031L14.6331 9.34377C14.682 9.64601 14.3797 9.87713 14.1197 9.73379L12.0997 8.62262L10.0797 9.73379C9.82084 9.87602 9.51751 9.64601 9.5664 9.34377L9.95195 6.99031L8.31862 5.32355C8.10751 5.11021 8.22418 4.73686 8.51307 4.69241L10.7731 4.34684Z" stroke="#484C52" stroke-width="1.5" stroke-linecap="round" stroke-linejoin="round"/>
</svg>
