<svg width="25" height="23" viewBox="0 0 25 23" fill="none" xmlns="http://www.w3.org/2000/svg">
<g filter="url(#filter0_d_2188_2850)">
<path d="M15.3333 21H8.66667M15.3333 21V11.6662C15.3333 11.4893 15.2631 11.3198 15.1381 11.1947C15.013 11.0697 14.8435 10.9995 14.6667 10.9995H9.33333C9.15652 10.9995 8.98695 11.0697 8.86193 11.1947C8.7369 11.3198 8.66667 11.4893 8.66667 11.6662V21M15.3333 21H21.3333C21.5101 21 21.6797 20.9298 21.8047 20.8047C21.9298 20.6797 22 20.5101 22 20.3333V17.7776C22 17.6008 21.9298 17.4312 21.8047 17.3062C21.6797 17.1811 21.5101 17.1109 21.3333 17.1109H16C15.8232 17.1109 15.6536 17.1811 15.5286 17.3062C15.4036 17.4312 15.3333 17.6008 15.3333 17.7776V21ZM8.66667 21V15.5553C8.66667 15.3784 8.59643 15.2089 8.47141 15.0838C8.34638 14.9588 8.17681 14.8886 8 14.8886H2.66667C2.48986 14.8886 2.32029 14.9588 2.19526 15.0838C2.07024 15.2089 2 15.3784 2 15.5553V20.3333C2 20.5101 2.07024 20.6797 2.19526 20.8047C2.32029 20.9298 2.48986 21 2.66667 21H8.66667ZM10.6733 3.34684L11.6833 1.20561C11.7106 1.1444 11.755 1.0924 11.8112 1.05591C11.8674 1.01942 11.933 1 12 1C12.067 1 12.1326 1.01942 12.1888 1.05591C12.245 1.0924 12.2894 1.1444 12.3167 1.20561L13.3278 3.34684L15.5856 3.69241C15.8756 3.73686 15.9911 4.11021 15.7811 4.32355L14.1478 5.99031L14.5333 8.34377C14.5822 8.64601 14.28 8.87713 14.02 8.73379L12 7.62262L9.98 8.73379C9.72111 8.87602 9.41778 8.64601 9.46667 8.34377L9.85222 5.99031L8.21889 4.32355C8.00778 4.11021 8.12445 3.73686 8.41333 3.69241L10.6733 3.34684Z" stroke="#FBBC05" stroke-width="1.5" stroke-linecap="round" stroke-linejoin="round" shape-rendering="crispEdges"/>
</g>
<defs>
<filter id="filter0_d_2188_2850" x="-2.75" y="0.25" width="29.5" height="29.5" filterUnits="userSpaceOnUse" color-interpolation-filters="sRGB">
<feFlood flood-opacity="0" result="BackgroundImageFix"/>
<feColorMatrix in="SourceAlpha" type="matrix" values="0 0 0 0 0 0 0 0 0 0 0 0 0 0 0 0 0 0 127 0" result="hardAlpha"/>
<feOffset dy="4"/>
<feGaussianBlur stdDeviation="2"/>
<feComposite in2="hardAlpha" operator="out"/>
<feColorMatrix type="matrix" values="0 0 0 0 0 0 0 0 0 0 0 0 0 0 0 0 0 0 0.25 0"/>
<feBlend mode="normal" in2="BackgroundImageFix" result="effect1_dropShadow_2188_2850"/>
<feBlend mode="normal" in="SourceGraphic" in2="effect1_dropShadow_2188_2850" result="shape"/>
</filter>
</defs>
</svg>
