<svg width="25" height="24" viewBox="0 0 25 24" fill="none" xmlns="http://www.w3.org/2000/svg">
<path d="M22.2294 11.0769H20.5151V12.9231H22.2294C22.4567 12.9231 22.6747 13.0203 22.8354 13.1934C22.9962 13.3665 23.0865 13.6013 23.0865 13.8462V20.3077C23.0865 20.7973 22.9059 21.2669 22.5844 21.6131C22.2629 21.9593 21.8269 22.1538 21.3722 22.1538C20.9176 22.1538 20.4815 21.9593 20.16 21.6131C19.8385 21.2669 19.6579 20.7973 19.6579 20.3077V2.76923C19.6579 2.03479 19.387 1.33042 18.9048 0.811089C18.4225 0.291757 17.7685 0 17.0865 0H3.37221C2.69022 0 2.03617 0.291757 1.55394 0.811089C1.0717 1.33042 0.800781 2.03479 0.800781 2.76923V20.3077C0.800781 21.287 1.162 22.2261 1.80499 22.9185C2.44797 23.611 3.32004 24 4.22935 24H21.3722C22.2815 24 23.1536 23.611 23.7966 22.9185C24.4396 22.2261 24.8008 21.287 24.8008 20.3077V13.8462C24.8008 13.1117 24.5299 12.4073 24.0476 11.888C23.5654 11.3687 22.9113 11.0769 22.2294 11.0769ZM4.22935 22.1538C3.7747 22.1538 3.33866 21.9593 3.01717 21.6131C2.69568 21.2669 2.51507 20.7973 2.51507 20.3077V2.76923C2.51507 2.52442 2.60537 2.28963 2.76612 2.11652C2.92686 1.94341 3.14488 1.84615 3.37221 1.84615H17.0865C17.3138 1.84615 17.5318 1.94341 17.6926 2.11652C17.8533 2.28963 17.9436 2.52442 17.9436 2.76923V20.3077C17.9447 20.9562 18.1043 21.5929 18.4065 22.1538H4.22935Z" fill="#484C52"/>
<path d="M16.2291 3.69141H5.94336V5.53756H16.2291V3.69141Z" fill="#484C52"/>
<path d="M16.2285 7.38477H4.22852V9.23092H16.2285V7.38477Z" fill="#484C52"/>
<path d="M16.2285 11.0762H4.22852V12.9223H16.2285V11.0762Z" fill="#484C52"/>
<path d="M16.2285 14.7695H4.22852V16.6157H16.2285V14.7695Z" fill="#484C52"/>
<path d="M16.2285 18.4609H4.22852V20.3071H16.2285V18.4609Z" fill="#484C52"/>
</svg>
