<svg width="444" height="103" viewBox="0 0 444 103" fill="none" xmlns="http://www.w3.org/2000/svg">
<g filter="url(#filter0_d_808_1192)">
<path d="M8 29C8 17.402 17.402 8 29 8H415C426.598 8 436 17.402 436 29V95H8V29Z" fill="#F5FCFF"/>
</g>
<path d="M96.2143 42H94.3571V44H96.2143C96.4606 44 96.6967 44.1054 96.8709 44.2929C97.045 44.4804 97.1429 44.7348 97.1429 45V52C97.1429 52.5304 96.9472 53.0391 96.5989 53.4142C96.2506 53.7893 95.7783 54 95.2857 54C94.7932 54 94.3208 53.7893 93.9725 53.4142C93.6242 53.0391 93.4286 52.5304 93.4286 52V33C93.4286 32.2044 93.1351 31.4413 92.6127 30.8787C92.0902 30.3161 91.3817 30 90.6429 30H75.7857C75.0469 30 74.3383 30.3161 73.8159 30.8787C73.2935 31.4413 73 32.2044 73 33V52C73 53.0609 73.3913 54.0783 74.0879 54.8284C74.7845 55.5786 75.7292 56 76.7143 56H95.2857C96.2708 56 97.2155 55.5786 97.9121 54.8284C98.6087 54.0783 99 53.0609 99 52V45C99 44.2044 98.7065 43.4413 98.1841 42.8787C97.6617 42.3161 96.9531 42 96.2143 42ZM76.7143 54C76.2217 54 75.7494 53.7893 75.4011 53.4142C75.0528 53.0391 74.8571 52.5304 74.8571 52V33C74.8571 32.7348 74.955 32.4804 75.1291 32.2929C75.3033 32.1054 75.5394 32 75.7857 32H90.6429C90.8891 32 91.1253 32.1054 91.2995 32.2929C91.4736 32.4804 91.5714 32.7348 91.5714 33V52C91.5726 52.7025 91.7455 53.3923 92.0729 54H76.7143Z" fill="#4081EC" fill-opacity="0.3"/>
<path d="M89.7144 34H78.5715V36H89.7144V34Z" fill="#4081EC" fill-opacity="0.3"/>
<path d="M89.7144 38H76.7144V40H89.7144V38Z" fill="#4081EC" fill-opacity="0.3"/>
<path d="M89.7144 42H76.7144V44H89.7144V42Z" fill="#4081EC" fill-opacity="0.3"/>
<path d="M89.7144 46H76.7144V48H89.7144V46Z" fill="#4081EC" fill-opacity="0.3"/>
<path d="M89.7144 50H76.7144V52H89.7144V50Z" fill="#4081EC" fill-opacity="0.3"/>
<path d="M168.872 47.875V43H185.122V47.875M177 43V38.125M172.125 30H181.875V38.125H172.125V30ZM180.25 47.875H190V56H180.25V47.875ZM164 47.875H173.75V56H164V47.875Z" stroke="#4081EC" stroke-width="2" stroke-linecap="round" stroke-linejoin="round"/>
<path d="M275.8 32.5996H260.2C257.328 32.5996 255 34.9277 255 37.7996V50.7996C255 53.6715 257.328 55.9996 260.2 55.9996H275.8C278.672 55.9996 281 53.6715 281 50.7996V37.7996C281 34.9277 278.672 32.5996 275.8 32.5996Z" stroke="#4081EC" stroke-opacity="0.3" stroke-width="2" stroke-linecap="round" stroke-linejoin="round"/>
<path d="M262.8 30V35.2M273.2 30V35.2M255 40.4H281" stroke="#4081EC" stroke-opacity="0.3" stroke-width="2" stroke-linecap="round" stroke-linejoin="round"/>
<path d="M364.766 53.0776L363.984 46.4164C363.873 45.4729 363.442 44.605 362.772 43.9758C362.102 43.3467 361.239 42.9996 360.345 43H357.652C356.759 43.0003 355.897 43.3476 355.227 43.9767C354.557 44.6058 354.127 45.4733 354.016 46.4164L353.233 53.0776C353.19 53.4436 353.22 53.8151 353.323 54.1675C353.425 54.5198 353.597 54.845 353.826 55.1214C354.056 55.3978 354.338 55.6191 354.654 55.7706C354.97 55.9221 355.313 56.0003 355.659 56H362.341C362.687 56.0001 363.03 55.9217 363.346 55.7702C363.662 55.6186 363.944 55.3973 364.173 55.1209C364.402 54.8446 364.574 54.5194 364.676 54.1671C364.778 53.8149 364.809 53.4435 364.766 53.0776V53.0776Z" stroke="#4081EC" stroke-opacity="0.3" stroke-width="2" stroke-linecap="round" stroke-linejoin="round"/>
<path d="M359 37.8C361.024 37.8 362.666 36.0539 362.666 33.9C362.666 31.7461 361.024 30 359 30C356.975 30 355.334 31.7461 355.334 33.9C355.334 36.0539 356.975 37.8 359 37.8Z" stroke="#4081EC" stroke-opacity="0.3" stroke-width="2"/>
<path d="M349.225 41.7C350.574 41.7 351.669 40.5359 351.669 39.1C351.669 37.6641 350.574 36.5 349.225 36.5C347.875 36.5 346.781 37.6641 346.781 39.1C346.781 40.5359 347.875 41.7 349.225 41.7Z" stroke="#4081EC" stroke-opacity="0.3" stroke-width="2"/>
<path d="M368.775 41.7C370.125 41.7 371.219 40.5359 371.219 39.1C371.219 37.6641 370.125 36.5 368.775 36.5C367.425 36.5 366.331 37.6641 366.331 39.1C366.331 40.5359 367.425 41.7 368.775 41.7Z" stroke="#4081EC" stroke-opacity="0.3" stroke-width="2"/>
<path d="M349.225 45.5996H348.851C348.272 45.5995 347.713 45.8178 347.271 46.2156C346.83 46.6133 346.535 47.1648 346.44 47.7719L346.033 50.3719C345.975 50.7444 345.993 51.126 346.088 51.4901C346.182 51.8542 346.35 52.192 346.579 52.4802C346.809 52.7684 347.094 52.9999 347.416 53.1587C347.738 53.3174 348.089 53.3997 348.444 53.3996H352.891M368.775 45.5996H369.149C369.728 45.5995 370.287 45.8178 370.729 46.2156C371.17 46.6133 371.465 47.1648 371.56 47.7719L371.967 50.3719C372.025 50.7444 372.007 51.126 371.912 51.4901C371.818 51.8542 371.65 52.192 371.421 52.4802C371.191 52.7684 370.906 52.9999 370.584 53.1587C370.262 53.3174 369.911 53.3997 369.556 53.3996H365.109" stroke="#4081EC" stroke-opacity="0.3" stroke-width="2" stroke-linecap="round" stroke-linejoin="round"/>
<defs>
<filter id="filter0_d_808_1192" x="0" y="0" width="444" height="103" filterUnits="userSpaceOnUse" color-interpolation-filters="sRGB">
<feFlood flood-opacity="0" result="BackgroundImageFix"/>
<feColorMatrix in="SourceAlpha" type="matrix" values="0 0 0 0 0 0 0 0 0 0 0 0 0 0 0 0 0 0 127 0" result="hardAlpha"/>
<feOffset/>
<feGaussianBlur stdDeviation="4"/>
<feComposite in2="hardAlpha" operator="out"/>
<feColorMatrix type="matrix" values="0 0 0 0 0 0 0 0 0 0 0 0 0 0 0 0 0 0 0.25 0"/>
<feBlend mode="normal" in2="BackgroundImageFix" result="effect1_dropShadow_808_1192"/>
<feBlend mode="normal" in="SourceGraphic" in2="effect1_dropShadow_808_1192" result="shape"/>
</filter>
</defs>
</svg>
